<svg width="60" height="70" viewBox="0 0 60 70" fill="none" xmlns="http://www.w3.org/2000/svg">
<path d="M51.215 61.7764L14.3408 65.1681C14.1272 65.189 13.9116 65.1673 13.7064 65.1045C13.5012 65.0416 13.3105 64.9388 13.1453 64.8019C12.98 64.665 12.8435 64.4967 12.7435 64.3068C12.6436 64.1169 12.5822 63.9091 12.5629 63.6954L7.63311 9.99856C7.61333 9.78577 7.63572 9.57116 7.69901 9.36704C7.7623 9.16291 7.86523 8.97327 8.00193 8.80899C8.13862 8.64471 8.30638 8.50902 8.4956 8.40967C8.68482 8.31033 8.89178 8.24929 9.10462 8.23006L45.9789 4.83836C46.1918 4.81857 46.4065 4.84096 46.6108 4.90424C46.815 4.96752 47.0048 5.07045 47.1693 5.20715C47.3337 5.34385 47.4695 5.51162 47.5691 5.70088C47.6686 5.89014 47.7298 6.09716 47.7493 6.31011L52.6866 60.0079C52.7063 60.2207 52.6839 60.4353 52.6207 60.6395C52.5574 60.8436 52.4544 61.0332 52.3177 61.1975C52.181 61.3618 52.0133 61.4975 51.8241 61.5968C51.6349 61.6962 51.4279 61.7572 51.215 61.7764Z" fill="#E0E0E0"/>
<path d="M51.2167 61.7764L51.3407 61.7581C51.4618 61.7351 51.5802 61.7 51.6943 61.6533C51.8818 61.5731 52.0529 61.4592 52.1992 61.3171C52.3986 61.1222 52.5444 60.8791 52.6222 60.6113C52.6705 60.4495 52.6921 60.2809 52.6863 60.1121C52.6787 59.9344 52.6554 59.7452 52.6388 59.5492C52.6007 59.1643 52.5544 58.7251 52.519 58.2607C52.4321 57.3286 52.3321 56.2561 52.2191 55.0431C51.7702 50.2026 51.1218 43.1987 50.3205 34.5429C49.9253 30.2166 49.4844 25.476 49.0143 20.3857C48.7806 17.8423 48.5382 15.2142 48.287 12.5014C48.1632 11.1452 48.0368 9.7703 47.9077 8.37669C47.8412 7.68027 47.7773 6.97848 47.7102 6.27248C47.6698 5.91969 47.5119 5.59073 47.262 5.33845C47.0121 5.08617 46.6847 4.92522 46.3323 4.88147C46.1562 4.86284 45.9784 4.86556 45.803 4.88959L45.2647 4.93835L44.1819 5.03889L41.9975 5.23946L37.5515 5.64969L28.3899 6.49826L9.11484 8.26716C8.70746 8.30414 8.32998 8.49663 8.06081 8.80465C7.79164 9.11267 7.65146 9.51253 7.6694 9.9212C7.73761 10.7376 7.81866 11.5575 7.89085 12.3724C8.04177 14.0007 8.19078 15.6192 8.33787 17.2279L9.20943 26.7288C9.78247 32.9573 10.3354 38.957 10.8603 44.687C11.3852 50.4171 11.8848 55.8399 12.3521 60.9374C12.4093 61.5782 12.4671 62.2089 12.5255 62.8295C12.5559 63.1413 12.5782 63.4558 12.613 63.7624C12.654 64.0652 12.781 64.3499 12.979 64.5827C13.176 64.8123 13.4333 64.9823 13.7218 65.0733C13.8652 65.1159 14.0137 65.1394 14.1632 65.1432C14.3114 65.1432 14.4637 65.1266 14.6138 65.1117L16.404 64.9479L23.1974 64.3257L43.698 62.4537L49.2734 61.9489L50.7228 61.8194L51.2167 61.7764L50.7238 61.8271L49.2734 61.9641L43.6962 62.482L23.196 64.3807L16.4094 65.0094L14.619 65.175C14.4691 65.1881 14.3185 65.2068 14.1625 65.2077C14.0073 65.2036 13.8532 65.1788 13.7046 65.1337C13.4022 65.0404 13.1327 64.8625 12.928 64.6211C12.7233 64.3797 12.5919 64.0849 12.5492 63.7713C12.513 63.4607 12.4901 63.1499 12.4598 62.8382C12.4018 62.2138 12.3434 61.583 12.2845 60.9459C11.8163 55.8558 11.3148 50.4176 10.7871 44.6948C10.2594 38.9719 9.70741 32.9647 9.13249 26.7361L8.26069 17.237C8.11344 15.6295 7.96459 14.0098 7.81415 12.3778C7.7401 11.5626 7.66043 10.7467 7.59132 9.92258C7.57307 9.49454 7.72041 9.07593 8.00273 8.75368C8.28504 8.43142 8.68064 8.23031 9.10736 8.19209L28.385 6.41783L37.5505 5.58305L41.9944 5.17446L44.1789 4.97389L45.2649 4.86237L45.8032 4.81361C45.9818 4.79097 46.1625 4.7899 46.3414 4.81043C46.7062 4.85809 47.0447 5.0258 47.3037 5.28713C47.5626 5.54846 47.7272 5.88853 47.7715 6.25374C47.8365 6.96138 47.9025 7.66153 47.9669 8.35958C48.0983 9.75476 48.2275 11.1281 48.3544 12.4796C48.6008 15.1906 48.842 17.8185 49.078 20.3635C49.5444 25.4533 49.9777 30.193 50.3745 34.5213C51.1649 43.1739 51.8051 50.1824 52.2482 55.0241C52.3572 56.2333 52.4547 57.3099 52.5406 58.2407C52.5814 58.7077 52.6158 59.1358 52.6564 59.5306C52.6735 59.7228 52.6963 59.9158 52.702 60.0932C52.7086 60.2639 52.6867 60.4345 52.6373 60.598C52.5589 60.8708 52.4106 61.1184 52.2069 61.3162C52.059 61.4579 51.8867 61.5716 51.6983 61.6519C51.5828 61.6986 51.4625 61.7323 51.3395 61.7522L51.2167 61.7764Z" fill="#263238"/>
<g opacity="0.3">
<path d="M16.3994 63.5521L50.0209 60.2753L49.81 53.7417L48.4176 49.9165L15.5966 58.1817L16.3994 63.5521Z" fill="black"/>
</g>
<g opacity="0.3">
<path d="M37.6787 5.71875L38.6528 7.91688L38.7533 9.03001L37.8918 9.10952L37.6787 5.71875Z" fill="black"/>
</g>
<path d="M9.45611 10.54L14.2663 62.8438L50.8038 59.4849L49.9437 50.1318L45.9939 7.17921L9.45611 10.54Z" fill="white"/>
<path d="M20.3602 38.5998L18.1877 37.0286C18.0139 36.9029 17.7712 36.9419 17.6455 37.1157C17.5198 37.2894 17.5588 37.5322 17.7326 37.6578L19.9051 39.2291C20.0789 39.3547 20.3216 39.3158 20.4473 39.142C20.573 38.9682 20.534 38.7255 20.3602 38.5998Z" fill="#F2994A"/>
<path d="M18.5912 39.4402L20.1624 37.2676C20.2881 37.0939 20.2491 36.8511 20.0754 36.7255C19.9016 36.5998 19.6589 36.6388 19.5332 36.8125L17.962 38.9851C17.8363 39.1588 17.8753 39.4016 18.049 39.5272C18.2228 39.6529 18.4655 39.6139 18.5912 39.4402Z" fill="#F2994A"/>
<path d="M9.45511 10.54L45.9948 7.14906L46.0248 7.1529L46.0207 7.18468C47.36 21.7205 49.0294 39.8597 50.8365 59.4892L50.8314 59.5285L50.794 59.5237L14.2586 62.881L14.225 62.8766L14.2295 62.8411C11.409 31.9575 9.48333 10.8533 9.45301 10.5416C9.48237 10.8608 11.4387 31.9632 14.2987 62.85L14.259 62.8183L50.7954 59.4536L50.7595 59.4965C48.9576 39.8714 47.2919 21.7326 45.9587 7.19383L45.993 7.22293L9.45511 10.54Z" fill="#263238"/>
<path d="M20.2348 5.77244L36.348 4.29173C36.6631 4.26277 36.9768 4.36017 37.2201 4.56251C37.4634 4.76484 37.6163 5.05553 37.6452 5.37063L38.0292 9.5486L19.5361 11.248L19.1525 7.07379C19.1376 6.91719 19.1538 6.75918 19.2002 6.60887C19.2467 6.45856 19.3223 6.31891 19.4229 6.19796C19.5235 6.07701 19.647 5.97715 19.7864 5.90412C19.9257 5.83109 20.0781 5.78634 20.2348 5.77244Z" fill="#263238"/>
<path d="M30.4604 2.80177L25.755 3.23384L26.675 7.21696L30.219 6.89055L30.4604 2.80177Z" fill="#263238"/>
<path d="M36.348 4.2886C36.3454 4.30916 32.7452 4.65876 28.2973 5.06875C23.8494 5.47873 20.2381 5.7965 20.2351 5.77522C20.2322 5.75393 23.838 5.40506 28.2896 4.99555C32.7412 4.58604 36.3387 4.2722 36.348 4.2886Z" fill="#455A64"/>
<path d="M19.875 10.3465C19.8545 10.3439 19.7666 9.59149 19.6813 8.65702C19.5959 7.72255 19.5416 6.96118 19.5647 6.95845C19.5879 6.95572 19.6731 7.71345 19.7582 8.64979C19.8433 9.58613 19.8956 10.3491 19.875 10.3465Z" fill="#455A64"/>
<path d="M37.312 8.3346C37.2248 7.82355 37.1641 7.30835 37.1299 6.79105C37.0694 6.28197 37.0349 5.77015 37.0264 5.25757C37.1136 5.76551 37.1747 6.27758 37.2096 6.79177C37.27 7.30397 37.3041 7.81892 37.312 8.3346Z" fill="#455A64"/>
<path d="M36.4877 9.1312C36.4851 9.15176 32.7888 9.50994 28.2238 9.9296C23.6587 10.3493 19.9571 10.6745 19.9507 10.6508C19.9442 10.6272 23.6478 10.2718 28.224 9.85362C32.8002 9.4354 36.4792 9.1092 36.4877 9.1312Z" fill="#455A64"/>
<path d="M25.1286 22.7089C25.1257 22.7314 22.6332 22.9779 19.5469 23.2623C16.4605 23.5467 13.9726 23.7578 13.9621 23.7355C13.9517 23.7133 16.4668 23.4677 19.5436 23.184C22.6204 22.9003 25.1256 22.6876 25.1286 22.7089Z" fill="#263238"/>
<path d="M43.4692 22.9924C43.4664 23.0148 36.9509 23.6328 28.9074 24.372C20.8638 25.1113 14.3377 25.6937 14.3366 25.6726C14.3355 25.6516 20.8531 25.032 28.9004 24.2932C36.9477 23.5544 43.4681 22.9714 43.4692 22.9924Z" fill="#263238"/>
<path d="M43.6352 24.796C43.6325 24.8166 37.1152 25.4343 29.0714 26.1754C21.0276 26.9165 14.5037 27.4973 14.5009 27.4741C14.4982 27.451 21.019 26.8356 29.0644 26.0966C37.1099 25.3576 43.6329 24.7691 43.6352 24.796Z" fill="#263238"/>
<path d="M43.8002 26.5881C43.7976 26.6087 37.2822 27.2266 29.2386 27.9659C21.195 28.7051 14.6687 29.2894 14.666 29.2662C14.6632 29.2431 21.184 28.6277 29.2316 27.8871C37.2791 27.1464 43.7972 26.5668 43.8002 26.5881Z" fill="#263238"/>
<path d="M43.9644 28.3861C43.9617 28.4067 37.4463 29.0246 29.4027 29.7639C21.3591 30.5031 14.8331 31.0855 14.832 31.0645C14.8309 31.0434 21.3482 30.4257 29.3957 29.6851C37.4433 28.9444 43.9635 28.3632 43.9644 28.3861Z" fill="#263238"/>
<path d="M44.1304 30.1806C44.1275 30.203 37.6102 30.8207 29.5666 31.56C21.5231 32.2993 14.9949 32.8833 14.9975 32.8627C15.0002 32.8421 21.5156 32.2242 29.5613 31.4833C37.607 30.7424 44.1272 30.1612 44.1304 30.1806Z" fill="#263238"/>
<path d="M19.7215 39.5549C19.7163 39.5352 19.7132 39.5151 19.7122 39.4948L19.6924 39.3231C19.6763 39.1671 19.6529 38.9494 19.625 38.6779C19.5691 38.1215 19.4907 37.34 19.3978 36.4046L19.4356 36.436L16.2814 36.7307C16.2814 36.7307 16.3488 36.65 16.3173 36.6878L16.3156 36.7009L16.3123 36.7271L16.3168 36.7808L16.3277 36.8887L16.3459 37.1019C16.3599 37.2443 16.3723 37.3847 16.3848 37.525C16.41 37.8018 16.4358 38.075 16.4588 38.3402C16.5069 38.8689 16.5511 39.3686 16.5929 39.8282L16.5551 39.7967L18.8316 39.6042L19.4784 39.5541L19.6507 39.5439L19.712 39.5404C19.712 39.5404 19.697 39.5384 19.6575 39.5505L19.4936 39.5694L18.8579 39.636L16.5691 39.8802L16.5354 39.8759L16.5398 39.8422L16.3998 38.3554C16.375 38.09 16.3492 37.8168 16.3146 37.5388C16.3022 37.3985 16.2879 37.2579 16.2757 37.1157C16.2675 37.0463 16.2617 36.9733 16.2556 36.9022L16.2447 36.7944L16.2402 36.7406L16.2436 36.7145L16.2453 36.7014L16.2465 36.692C16.2148 36.7317 16.2892 36.6405 16.2824 36.6491L19.4373 36.364L19.4709 36.3683L19.4666 36.402L19.6612 38.7072C19.6818 38.9759 19.6979 39.1908 19.7105 39.3445C19.715 39.4134 19.7176 39.467 19.7214 39.5112C19.7234 39.5257 19.7234 39.5404 19.7215 39.5549Z" fill="#263238"/>
<path d="M43.4815 34.9198L21.4805 36.9415L21.6492 38.7771L43.6502 36.7554L43.4815 34.9198Z" fill="#E0E0E0"/>
<path d="M20.2258 45.0273C20.2213 45.0069 20.2183 44.9862 20.2167 44.9654C20.211 44.9209 20.2051 44.8632 20.1969 44.7937C20.1808 44.6377 20.1572 44.4219 20.1293 44.1504C20.0736 43.5921 19.9962 42.8031 19.9024 41.8751L19.9402 41.9066L16.7859 42.2013C16.7845 42.2125 16.8533 42.1206 16.8216 42.1603L16.8204 42.1696L16.8187 42.1827L16.8154 42.2089L16.8199 42.2626L16.8308 42.3705C16.8366 42.4434 16.8427 42.5145 16.8506 42.5858L16.8879 43.0068C16.9129 43.2855 16.9389 43.5568 16.9619 43.822C17.01 44.3507 17.0542 44.8504 17.096 45.31L17.0582 45.2785L19.3363 45.0881L19.9813 45.0378L20.1538 45.0257C20.1741 45.0228 20.1945 45.0222 20.2149 45.024L20.1625 45.0325L19.9967 45.0512L19.3608 45.1197L17.0645 45.3477L17.0309 45.3434L17.0352 45.3098L16.8953 43.8229C16.8704 43.5575 16.8446 43.2844 16.81 43.0063C16.7974 42.8678 16.7833 42.7254 16.7709 42.5851C16.7648 42.514 16.7569 42.4427 16.751 42.3697L16.7402 42.2619L16.7357 42.2081L16.739 42.182L16.7419 42.1595L16.778 42.1148L19.9299 41.8388L19.9635 41.8431L19.9594 41.8749C20.0394 42.8219 20.1175 43.6054 20.154 44.1801C20.1746 44.4488 20.1908 44.6637 20.2034 44.8173C20.2078 44.8863 20.2105 44.9399 20.2143 44.9841C20.22 44.9979 20.2239 45.0125 20.2258 45.0273Z" fill="#263238"/>
<path d="M43.9834 40.3923L21.9824 42.4141L22.1511 44.2497L44.1521 42.2279L43.9834 40.3923Z" fill="#E0E0E0"/>
<path d="M20.7266 50.4981C20.7266 50.4981 20.7295 50.4757 20.7175 50.4361C20.7055 50.3966 20.7059 50.3339 20.6977 50.2645C20.6816 50.1085 20.658 49.8926 20.6301 49.6211C20.5742 49.0647 20.497 48.2738 20.4032 47.3459L20.441 47.3773L17.2793 47.6711C17.2778 47.6823 17.3466 47.5904 17.3149 47.63L17.3133 47.6431L17.3116 47.6562L17.3082 47.6824L17.3127 47.7362L17.3236 47.844C17.3294 47.9169 17.3355 47.988 17.3435 48.0594L17.3807 48.4803C17.4058 48.759 17.4318 49.0303 17.4548 49.2955L17.5888 50.7835L17.5508 50.7539L19.8292 50.5616L20.4741 50.5113L20.6467 50.4992C20.6669 50.4996 20.6869 50.5022 20.7065 50.5069L20.6541 50.5154L20.4883 50.534L19.8524 50.6026L17.5562 50.8306L17.5225 50.8263L17.5268 50.7926C17.4848 50.335 17.4374 49.831 17.3869 49.3058C17.3621 49.0404 17.3361 48.7691 17.3017 48.4892C17.289 48.3507 17.2747 48.2102 17.2626 48.068C17.2565 47.9969 17.2485 47.9256 17.2424 47.8545L17.2334 47.7469L17.2271 47.6929L17.2307 47.6648L17.2347 47.6331C17.2033 47.6708 17.2777 47.5797 17.2707 47.5902L20.4255 47.3051L20.4592 47.3094L20.4549 47.343L20.6494 49.6483C20.6701 49.917 20.6862 50.1319 20.6986 50.2874C20.7033 50.3545 20.7078 50.4083 20.7097 50.4522C20.7175 50.4667 20.7232 50.4821 20.7266 50.4981Z" fill="#263238"/>
<path d="M44.4854 45.8653L22.4844 47.8871L22.6531 49.7227L44.6541 47.7009L44.4854 45.8653Z" fill="#E0E0E0"/>
<path d="M21.1737 43.6128L19.0012 42.0415C18.8274 41.9159 18.5847 41.9549 18.459 42.1286C18.3333 42.3024 18.3723 42.5451 18.5461 42.6708L20.7186 44.242C20.8924 44.3677 21.1351 44.3287 21.2608 44.1549C21.3864 43.9812 21.3474 43.7384 21.1737 43.6128Z" fill="#F2994A"/>
<path d="M19.4047 44.4538L20.9759 42.2813C21.1016 42.1075 21.0626 41.8648 20.8888 41.7391C20.7151 41.6135 20.4723 41.6525 20.3467 41.8262L18.7754 43.9987C18.6498 44.1725 18.6888 44.4152 18.8625 44.5409C19.0363 44.6666 19.279 44.6276 19.4047 44.4538Z" fill="#F2994A"/>
<path d="M21.9872 49.3104L19.8146 47.7392C19.6409 47.6135 19.3981 47.6525 19.2725 47.8262C19.1468 48 19.1858 48.2427 19.3595 48.3684L21.5321 49.9397C21.7058 50.0653 21.9486 50.0263 22.0742 49.8526C22.1999 49.6788 22.1609 49.4361 21.9872 49.3104Z" fill="#F2994A"/>
<path d="M20.2191 50.1516L21.7904 47.9791C21.916 47.8053 21.8771 47.5626 21.7033 47.4369C21.5295 47.3112 21.2868 47.3502 21.1611 47.524L19.5899 49.6965C19.4642 49.8703 19.5032 50.113 19.677 50.2387C19.8507 50.3643 20.0935 50.3253 20.2191 50.1516Z" fill="#F2994A"/>
<path d="M26.8453 56.6568C26.8424 56.6793 24.9863 56.8687 22.6911 57.0741C20.3958 57.2794 18.5323 57.4375 18.5312 57.4165C18.5301 57.3954 20.3881 57.2062 22.6836 56.999C24.9791 56.7918 26.8421 56.6374 26.8453 56.6568Z" fill="#263238"/>
<path d="M30.9953 56.2125C30.4881 56.3002 29.9766 56.3615 29.463 56.396C28.9539 56.4554 28.4422 56.4893 27.9297 56.4976C28.4364 56.4102 28.9472 56.3489 29.4602 56.3139C30.3042 56.2378 30.9942 56.1914 30.9953 56.2125Z" fill="#263238"/>
<path d="M44.8708 53.7262C44.8681 53.7468 43.1984 53.9202 41.1332 54.1095C39.0681 54.2987 37.3898 54.435 37.3887 54.414C37.3876 54.3929 39.059 54.2216 41.1262 54.0307C43.1935 53.8398 44.8697 53.7051 44.8708 53.7262Z" fill="#263238"/>
<path d="M42.5044 58.424C42.5044 58.424 42.5277 58.3757 42.5589 58.2809C42.602 58.1402 42.6133 57.9917 42.5918 57.8461C42.5539 57.6153 42.4952 57.3884 42.4166 57.1681C42.3027 56.8745 42.2543 56.5596 42.2746 56.2453C42.3036 56.0541 42.3724 55.8711 42.4764 55.708C42.5805 55.5449 42.7175 55.4055 42.8787 55.2986C43.0669 55.1792 43.2824 55.1101 43.5049 55.0977C43.7274 55.0853 43.9493 55.1301 44.1495 55.2279C44.3704 55.3273 44.5582 55.4879 44.6907 55.6906C44.7611 55.7998 44.7945 55.9286 44.786 56.0582C44.7793 56.1276 44.7505 56.193 44.7038 56.2448C44.6571 56.2967 44.5951 56.3321 44.5268 56.3461C44.3995 56.37 44.2706 56.3846 44.1411 56.3898L43.7574 56.4184C43.5004 56.4368 43.2404 56.449 42.9744 56.4491C42.4581 56.4572 41.9431 56.3944 41.4439 56.2623C41.2209 56.1835 40.9763 56.1915 40.7589 56.2846C40.5775 56.4259 40.4177 56.593 40.2848 56.7806C40.207 56.8714 40.1064 56.9398 39.9933 56.9789C39.8791 57.0127 39.7563 57.0024 39.6493 56.9499C39.4679 56.8397 39.2985 56.711 39.1437 56.5658C39.0713 56.503 38.9855 56.4575 38.8928 56.4329C38.8059 56.4118 38.7143 56.4223 38.6344 56.4625C38.4899 56.5642 38.3648 56.6911 38.2652 56.837C38.163 56.96 38.0325 57.0565 37.885 57.1183C37.7374 57.1801 37.5771 57.2054 37.4178 57.1919C37.1767 57.1708 36.9531 57.0577 36.7932 56.8762C36.6925 56.7638 36.6193 56.6295 36.5793 56.4839C36.5652 56.434 36.5572 56.3826 36.5553 56.3307C36.5553 56.3307 36.5656 56.3833 36.595 56.4802C36.6387 56.6201 36.7139 56.7481 36.815 56.8543C36.9717 57.0257 37.1879 57.131 37.4195 57.1485C37.5717 57.1601 37.7245 57.1346 37.8646 57.0741C38.0048 57.0136 38.1282 56.92 38.2242 56.8013C38.3273 56.6484 38.4577 56.5157 38.6088 56.4098C38.7015 56.3616 38.8083 56.3477 38.9103 56.3706C39.0106 56.3989 39.104 56.4478 39.1845 56.5141C39.3372 56.6544 39.5031 56.7794 39.6801 56.8874C39.772 56.932 39.8773 56.9407 39.9753 56.9119C40.0765 56.8769 40.1656 56.8139 40.2323 56.7302C40.37 56.5378 40.5353 56.3669 40.7231 56.223C40.8361 56.1624 40.9631 56.1328 41.0913 56.1373C41.2173 56.14 41.3426 56.1561 41.4652 56.1852C41.9591 56.3147 42.4683 56.3768 42.9788 56.3699C43.2411 56.3693 43.4995 56.355 43.7563 56.3385L44.1397 56.3117C44.2626 56.3048 44.385 56.2907 44.5062 56.2694C44.5595 56.2597 44.6082 56.2328 44.6449 56.193C44.6816 56.1531 44.7042 56.1023 44.7094 56.0484C44.7153 55.9354 44.6858 55.8233 44.6251 55.7278C44.5001 55.5334 44.3221 55.3787 44.1122 55.282C43.9226 55.1892 43.7124 55.1462 43.5016 55.1571C43.2908 55.168 43.0862 55.2323 42.9071 55.344C42.7526 55.4447 42.6209 55.5767 42.5205 55.7314C42.4202 55.8861 42.3534 56.0601 42.3244 56.2422C42.3022 56.5491 42.3456 56.8572 42.4517 57.146C42.5282 57.369 42.5834 57.5987 42.6164 57.8322C42.6345 57.9813 42.6183 58.1326 42.5692 58.2746C42.5535 58.3268 42.5318 58.3769 42.5044 58.424Z" fill="#263238"/>
<path d="M46.6753 56.5268C46.6422 56.5355 46.6084 56.5413 46.5743 56.5443L46.2815 56.5751L45.2074 56.6825C44.3023 56.7754 43.0502 56.9074 41.6701 57.0743C40.2901 57.2413 39.0423 57.4138 38.1423 57.5415L37.0738 57.6933L36.782 57.7319C36.7483 57.7379 36.7142 57.7411 36.68 57.7416C36.7122 57.7291 36.7458 57.7206 36.7801 57.7165L37.0681 57.6641C37.3191 57.6184 37.6828 57.5529 38.1321 57.487C39.0341 57.3443 40.2791 57.1638 41.662 56.9897C43.0449 56.8155 44.2951 56.6985 45.2036 56.6231C45.657 56.5843 46.0256 56.5556 46.2804 56.5389L46.5734 56.5213C46.6075 56.5201 46.6416 56.5219 46.6753 56.5268Z" fill="#263238"/>
<path d="M36.6044 13.5391L21.6699 14.9115L21.9278 17.7175L36.8623 16.3451L36.6044 13.5391Z" fill="#E0E0E0"/>
</svg>
