<svg width="72" height="73" viewBox="0 0 72 73" fill="none" xmlns="http://www.w3.org/2000/svg">
<path d="M39.4048 11.6929L45.093 3.72937H26.8906L32.5788 11.6929V13.9682H39.4048V11.6929Z" fill="#11AADB" stroke="#1A60DF" stroke-width="3" stroke-linejoin="round"/>
<path d="M57.606 46.586C57.6072 46.0877 57.4695 45.5996 57.2078 45.1753L54.6708 41.0912C54.3546 40.4631 54.1908 39.7692 54.193 39.0662V26.4837C54.193 18.3153 47.5718 11.6942 39.4035 11.6942H32.5775C24.4092 11.6942 17.788 18.3153 17.788 26.4837V39.0662C17.7904 39.7692 17.6265 40.4633 17.3102 41.0912L14.7732 45.1753C14.5115 45.5996 14.3738 46.0877 14.375 46.586C14.3807 48.048 15.5639 49.231 17.0257 49.2367H54.9551C56.4171 49.231 57.6003 48.0478 57.606 46.586Z" fill="#11AADB" stroke="#1A60DF" stroke-width="3"/>
<path d="M41.6821 28.7584V28.0304C41.6764 25.9223 39.9676 24.2136 37.8595 24.2078H37.1314V21.9325H34.8561V24.2078H34.1281C32.0166 24.201 30.2998 25.9063 30.293 28.0177C30.2873 29.6207 31.2827 31.0564 32.7856 31.6138L34.8561 32.3874V36.7218H34.1281C33.2737 36.7218 32.5808 36.029 32.5808 35.1746V34.4465H30.3055V35.1746C30.3112 37.2827 32.0199 38.9914 34.1281 38.9972H37.8596C39.9711 39.004 41.6879 37.2987 41.6947 35.1872C41.7004 33.5843 40.705 32.1485 39.2021 31.5911L37.1316 30.8176V26.4831H37.8596C38.714 26.4831 39.4069 27.176 39.4069 28.0304V28.7584H41.6821ZM38.4057 33.7186C39.0064 33.9518 39.4034 34.5298 39.4068 35.1748C39.4068 36.0292 38.7139 36.7221 37.8595 36.7221H37.1314V33.2409L38.4057 33.7186ZM34.8563 29.9644L33.582 29.4865C32.9813 29.2533 32.5843 28.6753 32.5809 28.0303C32.5809 27.1759 33.2738 26.483 34.1282 26.483H34.8563V29.9644Z" fill="#F9F9FA"/>
<path d="M58.7459 15.108C58.3591 12.7735 56.5298 10.9442 54.1953 10.5573C56.5298 10.1705 58.3591 8.3412 58.7459 6.00671C59.1328 8.3412 60.9621 10.1705 63.2966 10.5573C60.9621 10.9442 59.1328 12.7736 58.7459 15.108Z" fill="#2CBDEC"/>
<path d="M60.4491 69.605C60.0622 67.2706 58.2329 65.4413 55.8984 65.0544C58.2329 64.6676 60.0622 62.8383 60.4491 60.5038C60.8359 62.8383 62.6652 64.6676 64.9997 65.0544C62.6652 65.4413 60.8359 67.2707 60.4491 69.605Z" fill="#2CBDEC"/>
<path d="M7.55063 37.8618C7.16378 35.5274 5.33448 33.698 3 33.3113C5.33448 32.9244 7.16378 31.0951 7.55063 28.7606C7.93748 31.0951 9.76678 32.9244 12.1013 33.3113C9.76678 33.698 7.93735 35.5274 7.55063 37.8618Z" fill="#2CBDEC"/>
<path d="M68.4939 43.4224C67.5598 41.8502 65.553 41.2939 63.9432 42.1597L47.8 49.0538C47.5156 49.1743 47.2096 49.237 46.9012 49.2358H26.8899C25.6328 49.2358 24.6146 48.2176 24.6146 46.9605C24.6146 45.7034 25.6328 44.6852 26.8899 44.6852H35.9912C39.7614 44.6852 42.8171 41.6295 42.8171 37.8593H23.8865C20.7488 37.8616 17.7819 39.2893 15.8206 41.7387L8.6875 50.3734L16.7194 65.0946L47.6294 57.6657C48.965 57.3574 50.2574 56.8842 51.4747 56.255L67.4018 48.098C68.9865 47.1027 69.4734 45.0174 68.4939 43.4224Z" fill="#F9F9FA" stroke="#1A60DF" stroke-width="3" stroke-linecap="round" stroke-linejoin="round"/>
<path d="M17.1682 68.2137H4.5V49.986L7.1821 47.9745L19.2722 66.1097L17.1682 68.2137Z" fill="#5A8BE5" stroke="#1A60DF" stroke-width="3" stroke-linejoin="round"/>
<path d="M3 69.7129H17.7895L21.2024 66.3L18.6996 62.5458C13.6394 64.6344 8.37885 66.201 3 67.2216V69.7129Z" fill="black" fill-opacity="0.04"/>
</svg>
