<svg width="36" height="36" viewBox="0 0 36 36" fill="none" xmlns="http://www.w3.org/2000/svg">
<path fill-rule="evenodd" clip-rule="evenodd" d="M16.5 5.625C16.0027 5.625 15.5258 5.82254 15.1742 6.17417C14.8225 6.52581 14.625 7.00272 14.625 7.5C14.625 7.99728 14.8225 8.47419 15.1742 8.82583C15.5258 9.17746 16.0027 9.375 16.5 9.375H19.5C19.9973 9.375 20.4742 9.17746 20.8258 8.82583C21.1775 8.47419 21.375 7.99728 21.375 7.5C21.375 7.00272 21.1775 6.52581 20.8258 6.17417C20.4742 5.82254 19.9973 5.625 19.5 5.625H16.5ZM13.5832 4.58318C14.3568 3.8096 15.406 3.375 16.5 3.375H19.5C20.594 3.375 21.6432 3.8096 22.4168 4.58318C22.919 5.08536 23.2783 5.70367 23.4686 6.375H25.5C26.594 6.375 27.6432 6.8096 28.4168 7.58318C29.1904 8.35677 29.625 9.40598 29.625 10.5V28.5C29.625 29.594 29.1904 30.6432 28.4168 31.4168C27.6432 32.1904 26.594 32.625 25.5 32.625H10.5C9.40598 32.625 8.35677 32.1904 7.58318 31.4168C6.8096 30.6432 6.375 29.594 6.375 28.5V10.5C6.375 9.40598 6.8096 8.35677 7.58318 7.58318C8.35677 6.8096 9.40598 6.375 10.5 6.375H12.5314C12.7217 5.70367 13.081 5.08536 13.5832 4.58318ZM12.5314 8.625H10.5C10.0027 8.625 9.52581 8.82254 9.17417 9.17417C8.82254 9.52581 8.625 10.0027 8.625 10.5V28.5C8.625 28.9973 8.82254 29.4742 9.17417 29.8258C9.52581 30.1775 10.0027 30.375 10.5 30.375H25.5C25.9973 30.375 26.4742 30.1775 26.8258 29.8258C27.1775 29.4742 27.375 28.9973 27.375 28.5V10.5C27.375 10.0027 27.1775 9.52581 26.8258 9.17417C26.4742 8.82254 25.9973 8.625 25.5 8.625H23.4686C23.2783 9.29633 22.919 9.91464 22.4168 10.4168C21.6432 11.1904 20.594 11.625 19.5 11.625H16.5C15.406 11.625 14.3568 11.1904 13.5832 10.4168C13.081 9.91464 12.7217 9.29633 12.5314 8.625ZM12.375 18C12.375 17.3787 12.8787 16.875 13.5 16.875H13.515C14.1363 16.875 14.64 17.3787 14.64 18C14.64 18.6213 14.1363 19.125 13.515 19.125H13.5C12.8787 19.125 12.375 18.6213 12.375 18ZM16.875 18C16.875 17.3787 17.3787 16.875 18 16.875H22.5C23.1213 16.875 23.625 17.3787 23.625 18C23.625 18.6213 23.1213 19.125 22.5 19.125H18C17.3787 19.125 16.875 18.6213 16.875 18ZM12.375 24C12.375 23.3787 12.8787 22.875 13.5 22.875H13.515C14.1363 22.875 14.64 23.3787 14.64 24C14.64 24.6213 14.1363 25.125 13.515 25.125H13.5C12.8787 25.125 12.375 24.6213 12.375 24ZM16.875 24C16.875 23.3787 17.3787 22.875 18 22.875H22.5C23.1213 22.875 23.625 23.3787 23.625 24C23.625 24.6213 23.1213 25.125 22.5 25.125H18C17.3787 25.125 16.875 24.6213 16.875 24Z" fill="#1049B2"/>
</svg>
